<svg xmlns="http://www.w3.org/2000/svg" viewBox="0 0 66 67" height="67" width="66"><path d="M0 33.5V0h66v67H0z" fill="#e8f3ed"/><path d="M25.5 66.124c-9.333-2.477-18.111-9.93-22.351-18.976-3.775-8.054-3.775-19.242 0-27.296C6.386 12.945 12.195 6.97 19.216 3.325 23.765.963 25.683.58 33 .58c7.317 0 9.235.382 13.784 2.744 7.021 3.645 12.83 9.62 16.067 16.527 3.775 8.054 3.775 19.242 0 27.296-5.294 11.296-15.844 18.677-27.699 19.379-3.658.216-8.002.035-9.652-.403zm17.305-26.47C48.962 33.413 54 27.624 54 26.79c0-1.682-4.708-6.79-6.259-6.79-.542 0-4.674 3.6-9.181 8-4.508 4.4-8.561 8-9.007 8-.446 0-2.554-1.575-4.685-3.5-2.13-1.925-4.406-3.5-5.056-3.5C17.832 29 14 33.22 14 35.4 14 38.148 26.791 51 29.528 51c1.33 0 6.13-4.102 13.277-11.346z" fill="#439f6d"/></svg>