<svg xmlns="http://www.w3.org/2000/svg" viewBox="0 0 26.985159 33.602081" height="127" width="101.991"><path d="M.755 33.096l-.625-.505-.065-13.054L0 6.482l2.957-3.24L5.914 0h10.098c9.446 0 10.126.031 10.535.484.397.439.438 1.952.438 16.272 0 15.435-.012 15.8-.529 16.317-.514.514-.882.53-12.803.53-11.689 0-12.304-.025-12.898-.507zM21.694 23.02c.494-.494.529-.882.529-5.866 0-6.532.11-6.305-3.068-6.305h-2.192l-.082-.992-.082-.992h-6.086l-.082.992-.082.992h-2.1c-3.225 0-3.16-.128-3.156 6.284.003 2.874.092 5.355.199 5.512.54.799 1.385.888 8.462.896 6.863.008 7.236-.018 7.74-.521zm-9.485-1.406c-1.85-.698-3.21-2.652-3.214-4.622-.002-.763.672-2.394 1.265-3.062.25-.28.93-.729 1.512-.996 4.04-1.856 8.243 2.41 6.241 6.335-1.036 2.03-3.742 3.124-5.804 2.345zm3.862-2.418c2.005-2.171.272-5.482-2.664-5.088-2.235.3-3.468 2.773-2.306 4.627 1.163 1.855 3.484 2.07 4.97.461zm-2.97-1.368c-.516-.515-.44-1.128.192-1.525.917-.578 1.95.723 1.246 1.57-.416.502-.907.487-1.439-.045zm-1.462-7.773c0-.154.882-.264 2.117-.264 1.235 0 2.117.11 2.117.264 0 .155-.882.265-2.117.265-1.235 0-2.117-.11-2.117-.265z" fill="#db5640"/></svg>