<svg xmlns="http://www.w3.org/2000/svg" viewBox="0 0 25.135416 31.75" height="120" width="95"><path d="M.416 31.334C.05 30.968 0 29.434 0 18.48V6.04l2.7-3.02L5.4 0h9.43c8.8 0 9.459.032 9.868.484.396.438.437 1.896.437 15.46 0 13.26-.047 15.022-.415 15.39-.366.366-1.836.416-12.152.416C2.25 31.75.78 31.7.416 31.334zm18.293-6.783l1.135-1.113V11.906h-2.646V9.525H6.35v13.758h2.646v2.381h8.579zm-1.246-.428c0-.72.094-.84.661-.84.364 0 .661.099.661.219s-.297.498-.661.84l-.661.621zm-7.144-.178c0-.655.022-.662 2.305-.662h2.305l1.134-1.113 1.135-1.114V13.23h1.6l-.073 4.829-.072 4.828-.86.083c-.756.073-.86.177-.86.86v.777H10.32zm4.498-2.203c0-.72.094-.84.661-.84.364 0 .662.098.662.219 0 .12-.298.498-.662.84l-.661.62zM7.469 16.47l.072-5.754h8.466l.072 4.96.072 4.961h-.932c-.859 0-.932.062-.932.794v.794H7.398zm6.821 1.919c0-.28-4.322-.522-4.96-.278-.202.078-.291.266-.197.417.221.359 5.157.225 5.157-.14zm-.069-2.316c-.077-.23-.813-.33-2.447-.33-1.635 0-2.37.1-2.447.33-.084.25.518.331 2.447.331 1.928 0 2.53-.081 2.447-.33zm.07-2.182c0-.28-4.323-.522-4.96-.278-.203.078-.292.266-.198.417.221.359 5.157.225 5.157-.14z" fill="#3f9a68"/></svg>