<svg xmlns="http://www.w3.org/2000/svg" viewBox="0 0 72.192818 71.991173" height="272.093" width="272.855"><g transform="translate(-80.748 -97.596)"><path d="M92.373 135.07c-.69-.195-1.034-.661-1.006-1.36.01-.244-.018-.467-.068-.547-.072-.115-.048-.244.155-.86.46-1.39 1.146-2.746 2.916-5.765 2.218-3.784 3.203-6.044 3.332-7.646.033-.408.056-.493.1-.373.101.273.196.05.175-.407-.013-.275-.048-.422-.097-.413-.043.008-.095-.12-.12-.3-.106-.756-.295-1.04-.864-1.296-.302-.136-.446-.155-1.211-.154-.828 0-.902.012-1.59.25-4.364 1.504-10.539 7.173-11.097 10.189-.06.321-.095.408-.123.3-.069-.26-.186-.167-.186.147 0 .276.126.493.185.316.048-.142.132-.082.173.123.027.135.097.223.213.267.095.037.725.066 1.4.066.677 0 1.308.03 1.408.069.178.067.178.07.054.21-.162.184-1.092.623-1.598.755-.6.156-1.34.135-1.703-.048-1.12-.567-1.146-2.259-.065-4.402.58-1.15 1.417-2.211 2.813-3.567 2.675-2.599 6.198-4.708 8.88-5.317.732-.167 1.959-.23 2.615-.137 1.883.268 2.633 1.324 2.46 3.458-.132 1.61-.741 2.965-3.36 7.476-2.382 4.105-2.927 5.13-3.216 6.047-.446 1.414-.211 2.218.617 2.118 1.07-.13 3.455-1.664 5.928-3.81 1.682-1.46 3.034-2.846 5.752-5.892 2.15-2.41 2.336-2.573 2.95-2.573.194 0 .352.027.352.06 0 .09-.139.405-1.012 2.296-1.382 2.992-1.855 4.312-2.012 5.612-.043.359-.102.652-.13.652-.03 0-.053-.03-.053-.067 0-.15-.12-.054-.155.124-.052.26.016.494.13.45.065-.025.09.019.087.146-.003.1-.02.144-.04.099-.099-.246-.258.12-.182.421.024.096.078.157.124.14.055-.021.104.118.153.431.135.878.46 1.223 1.15 1.227.436.002.71-.12 1.292-.571.247-.192.43-.292.455-.25.063.101.415-.177.77-.608.174-.211.269-.38.228-.404-.04-.025.074-.21.27-.44a21.093 21.093 0 0 0 1.589-2.147c.693-1.118 1.505-2.903 1.85-4.069.251-.851.296-1.876.112-2.601a4.113 4.113 0 0 1-.122-1.16c.012-.594.022-.635.197-.786.226-.194.438-.201.664-.023.376.295.607.877.748 1.886.1.715.138.789.518 1.029.405.256.33.479-.207.623-.51.136-.743.501-1.344 2.106-.428 1.142-1.25 2.86-1.76 3.686-1.277 2.058-3.354 4.046-4.806 4.597-.246.094-.337.103-.411.042-.133-.11-.6-.118-.794-.014-.141.076-.2.068-.446-.057a2.544 2.544 0 0 1-1.054-1.061c-.18-.366-.185-.41-.181-1.446.005-1.29.193-2.48.697-4.406.182-.697.317-1.28.3-1.296-.046-.047-.71.56-2.839 2.6-3.755 3.596-5.405 4.976-6.71 5.61-1.21.587-2.532.85-3.25.646zm-8.147-7.154c0-.189-.59-.178-.653.012-.018.055.08.08.313.08.245 0 .34-.026.34-.092z" fill="#fff"/><path d="M92.355 135.066c-.43-.122-.644-.29-.854-.672-.14-.254-.168-.38-.141-.618a1.545 1.545 0 0 0-.05-.549c-.075-.229-.062-.312.152-.95.464-1.385 1.169-2.787 2.786-5.539 2.38-4.047 3.31-6.168 3.454-7.88.032-.37.056-.458.098-.346.09.245.19.093.19-.291 0-.389-.05-.588-.134-.536-.03.018-.075-.125-.1-.318-.095-.703-.306-1.014-.858-1.264-.306-.138-.44-.155-1.213-.15-1.026.005-1.49.13-2.806.757-4.317 2.058-9.31 6.924-9.864 9.612-.061.297-.103.389-.143.316-.092-.164-.183-.047-.183.234 0 .258.086.398.166.268.075-.12.15-.072.189.12.06.305.256.347 1.615.347.677 0 1.31.03 1.409.069.178.067.178.07.054.21-.162.184-1.092.623-1.598.755-.6.156-1.34.135-1.703-.048-1.12-.567-1.146-2.259-.065-4.402.58-1.15 1.417-2.211 2.813-3.567 2.387-2.319 5.412-4.234 8.018-5.077 1.989-.643 4.026-.565 5.023.191.745.565 1.03 1.462.914 2.878-.134 1.651-.69 2.883-3.47 7.688-2.348 4.056-2.759 4.829-3.088 5.8-.16.472-.21.74-.214 1.152-.008.593.094.842.402.982.712.324 3.341-1.219 6.088-3.574 1.847-1.584 3.256-3.02 6.18-6.298 1.97-2.207 2.162-2.372 2.767-2.372.23 0 .358.029.358.08 0 .042-.379.904-.842 1.914-1.102 2.4-1.383 3.064-1.705 4.029-.274.82-.526 1.953-.526 2.365 0 .128-.03.232-.067.232a.067.067 0 0 1-.067-.067c0-.14-.12-.06-.15.1-.05.258.019.515.125.474.065-.025.09.019.087.146-.003.1-.02.144-.04.099-.057-.142-.137-.093-.177.107-.05.25.016.493.123.452.06-.022.099.083.131.347.103.835.412 1.222 1.05 1.316.38.057.81-.12 1.419-.583.228-.173.444-.288.51-.271.156.04.847-.678.926-.965.034-.123.21-.396.389-.606 1.218-1.427 2.234-3.153 2.98-5.068.555-1.422.7-2.551.458-3.566a4.452 4.452 0 0 1-.121-1.195c.013-.593.024-.635.198-.785.595-.511 1.253.377 1.418 1.913.059.551.166.76.498.97.416.263.351.486-.182.629-.522.14-.712.455-1.528 2.544-1.125 2.876-2.586 5.03-4.502 6.638-.972.815-2.11 1.439-2.292 1.257-.099-.1-.683-.1-.84-.003-.272.17-1.155-.503-1.45-1.106-.424-.867-.264-2.836.467-5.75.194-.772.342-1.416.33-1.43-.036-.04-.42.313-2.533 2.325-4.28 4.075-5.656 5.23-7.008 5.887-1.227.595-2.532.852-3.27.643zm-8.18-7.158c-.025-.102-.568-.083-.602.02-.022.066.051.083.295.067.178-.011.317-.05.308-.087z" fill="#fff"/><path d="M92.355 135.066c-.43-.122-.644-.29-.854-.672-.14-.254-.168-.38-.141-.618a1.545 1.545 0 0 0-.05-.549c-.075-.229-.062-.312.151-.947.468-1.398 1.063-2.589 2.705-5.408 1.843-3.164 2.64-4.743 3.12-6.176.245-.734.435-1.629.44-2.067.002-.264.005-.27.09-.118.075.137.093.143.13.045.101-.263.03-.945-.09-.87-.03.017-.075-.126-.1-.319-.055-.402-.188-.757-.353-.94-.357-.395-1.282-.582-2.262-.459-2.993.378-8.699 4.625-11.154 8.302-.498.746-.796 1.373-.96 2.02-.076.298-.133.423-.16.351-.066-.171-.178-.054-.177.185.001.252.092.432.162.32.071-.115.171-.086.171.05 0 .068.063.18.14.25.126.114.285.131 1.52.161.76.018 1.42.059 1.468.09.148.096-.102.307-.695.586-1.035.49-2.046.608-2.635.31-.969-.49-1.125-1.844-.419-3.625.587-1.478 1.486-2.712 3.167-4.344 2.9-2.818 6.702-5.001 9.436-5.42.878-.135 2.11-.091 2.699.095 1.43.454 1.975 1.438 1.821 3.297-.067.806-.184 1.288-.53 2.182-.302.78-1.18 2.48-2.109 4.09-2.398 4.153-2.836 4.927-3.28 5.793-.617 1.206-.838 1.88-.851 2.595-.011.603.093.85.411.977.582.23 2.342-.658 4.39-2.215 2.407-1.83 4.415-3.776 7.616-7.384 2.141-2.413 2.4-2.64 3.028-2.64.348 0 .36.007.322.16-.022.088-.432 1.01-.912 2.049-.984 2.134-1.515 3.427-1.768 4.305-.184.64-.368 1.598-.368 1.914 0 .106-.03.192-.067.192-.037 0-.067-.036-.067-.08 0-.057-.02-.06-.071-.01-.1.1-.052.596.054.574.051-.01.083.056.083.167-.001.14-.016.16-.063.086-.089-.14-.149-.05-.157.235-.004.156.033.275.102.325.061.045.142.265.186.508.13.723.359 1.013.887 1.132.49.11.775.01 1.507-.524.233-.17.476-.3.541-.29.144.024.94-.804.94-.977 0-.065.276-.462.614-.883a15.94 15.94 0 0 0 2.021-3.17c1.174-2.409 1.505-3.85 1.187-5.178a4.562 4.562 0 0 1-.124-1.192c.011-.595.02-.633.199-.786.271-.233.49-.207.777.095.304.32.506.841.606 1.56.114.832.17.965.505 1.195.437.3.396.497-.139.664-.537.169-.688.406-1.403 2.206-1.097 2.759-2.107 4.442-3.606 6.005-1.297 1.351-2.916 2.42-3.36 2.218a1.109 1.109 0 0 0-.772.002c-.333.151-1.176-.477-1.484-1.105-.418-.854-.265-2.807.443-5.67.18-.728.327-1.37.327-1.428 0-.13 0-.13-2.94 2.657-4.086 3.872-5.322 4.894-6.705 5.542-1.138.533-2.44.771-3.14.574zm-8.235-7.098c.157-.06.058-.16-.16-.16-.245 0-.412.064-.365.14.042.068.367.08.525.02z" fill="#fff"/><path d="M92.258 135.036c-.42-.15-.634-.338-.814-.71a.819.819 0 0 1-.092-.522 1.528 1.528 0 0 0-.042-.546c-.077-.273-.067-.344.136-.952.46-1.385 1.005-2.472 2.737-5.468 2.516-4.354 3.355-6.258 3.515-7.98.032-.343.063-.454.106-.377.102.182.186.049.186-.294 0-.193-.039-.365-.096-.421-.052-.053-.13-.288-.17-.523-.143-.797-.533-1.136-1.468-1.275-1.23-.183-2.782.308-4.814 1.522-4.084 2.44-8.076 6.679-8.453 8.976-.038.233-.062.271-.112.182-.087-.157-.188-.073-.188.156 0 .301.064.42.176.328.052-.043.101-.067.11-.052l.117.226c.134.262.256.284 1.647.293.632.005 1.23.039 1.329.077.177.067.178.07.054.207-.166.184-.768.485-1.387.692-.633.213-1.466.231-1.884.041-.81-.368-1.085-1.394-.737-2.754.418-1.628 1.259-2.982 2.913-4.69 1.87-1.931 3.995-3.516 6.251-4.661 2.06-1.046 3.623-1.458 5.237-1.38 2.286.11 3.215 1.18 3.013 3.468-.155 1.757-.58 2.691-3.677 8.073-2.79 4.851-3.084 5.48-3.086 6.615-.001.547.085.766.357.906.186.097.265.1.587.03.522-.112 1.575-.64 2.465-1.235 2.87-1.918 5.22-4.122 9.476-8.889 1.683-1.885 1.951-2.105 2.567-2.105.328 0 .343.008.305.157-.021.086-.403.95-.847 1.921-1.002 2.186-1.419 3.174-1.704 4.044-.226.689-.497 1.944-.497 2.3 0 .11-.03.198-.067.198a.069.069 0 0 1-.067-.07c0-.04-.03-.053-.067-.03-.112.069-.083.568.034.568.066 0 .098.062.095.183-.003.101-.021.146-.04.1-.064-.159-.156-.008-.156.257 0 .17.035.279.097.303.055.02.117.173.143.349.138.927.476 1.29 1.206 1.29.39 0 .677-.133 1.308-.602.173-.129.382-.24.465-.245.18-.014.924-.795.924-.97 0-.066.169-.325.375-.576 1.072-1.306 1.834-2.518 2.508-3.986.992-2.164 1.25-3.563.894-4.856-.055-.203-.1-.633-.101-.958-.001-.563.008-.598.194-.785.277-.277.5-.258.811.068.318.334.496.81.623 1.666.11.738.176.875.537 1.12.136.093.24.219.24.293 0 .141-.203.294-.474.357-.45.104-.676.471-1.4 2.281-1.065 2.66-2.058 4.315-3.503 5.833-1.354 1.422-3.003 2.521-3.436 2.29-.172-.093-.559-.091-.763.002-.34.154-1.177-.478-1.498-1.133-.182-.37-.185-.4-.177-1.513.009-1.318.111-1.986.633-4.132.186-.765.321-1.409.3-1.43-.045-.045-.2.098-2.612 2.384-3.44 3.261-4.796 4.457-5.92 5.22-1.396.949-3.393 1.477-4.322 1.144zm-8.15-7.128c-.024-.1-.434-.081-.468.02-.022.066.038.083.228.068.142-.012.25-.051.24-.088zm41.028 6.486c-.249-.21-.324-.487-.219-.806.108-.327.293-.435.747-.435.307 0 .418.031.57.161.163.14.187.209.187.533 0 .504-.15.656-.686.695-.345.025-.413.008-.599-.148z" fill="#fff"/><path d="M125.173 133.235c-.248.14-.362.508-.262.843.105.35.289.462.753.462.307 0 .418-.031.57-.161.163-.14.187-.209.187-.533 0-.506-.151-.658-.682-.69-.258-.014-.447.012-.566.08z" fill="#fff"/><ellipse ry="19.778" rx="25.324" cy="134.308" cx="117.564" fill="#f2f2f2"/></g><path d="M32.524 71.911c-8.958-1.136-15.747-4.402-21.863-10.516-10.702-10.7-13.6-26.1-7.54-40.07C7.013 12.347 15.655 4.57 25.025 1.61 28.922.379 31.526 0 36.096 0c5.926 0 10.217.916 15.275 3.261 7.471 3.464 14.52 10.657 17.722 18.082 6.032 13.991 3.13 29.362-7.563 40.052-5.397 5.396-11.364 8.591-18.707 10.019-2.188.425-8.475.729-10.3.497zm11.21-18.453c1.43-.838 3.572-3.15 4.628-4.997.438-.765 1.159-2.462 1.602-3.77l.806-2.38.96.062c.821.052.912.005.634-.331-.18-.216-.622-.392-.983-.392-.417 0-.611-.121-.53-.331.069-.182.396-1.521.726-2.977.33-1.455.787-2.861 1.016-3.125.361-.417.365-.511.029-.73-.64-.415-1.539-.577-2.234-.403-1.493.375-3.88 3.207-4.534 5.377-.938 3.117 1.812 2.796 3.912-.457.408-.631.415-.595.155.794-.15.8-.351 1.545-.448 1.654-.097.11-.855.376-1.683.592-3.049.794-7.844 3.656-9.28 5.54-1.994 2.613-1.958 4.783.103 6.188.787.536 1.146.61 2.444.496.961-.084 1.947-.382 2.677-.81zm-5.004-.287c-1.41-1.409-.582-4.213 1.918-6.498 1.475-1.348 5.775-3.653 7.817-4.19 1.247-.328 1.253-.234.186 2.95-.95 2.838-2.165 4.928-3.74 6.44-1.524 1.463-2.566 1.948-4.184 1.948-1.078 0-1.478-.13-1.997-.65zm8.081-13.19c0-1.58 2.702-4.946 3.972-4.946.45 0 .48.09.239.728-.744 1.974-3.099 5.093-3.845 5.093-.237 0-.366-.306-.366-.874zm-20.175 2.205c1.936-.879 3.532-2.134 6.97-5.486l3.331-3.247-.618 2.313c-1.023 3.824-.767 5.62.878 6.162 2.017.666 5.08-2.013 7.088-6.197.638-1.329 1.238-2.803 1.335-3.276.14-.685.305-.86.815-.86.779 0 .823-.288.112-.732-.342-.213-.53-.617-.53-1.14 0-.99-.42-1.832-.915-1.832-.493 0-.622.726-.328 1.843.59 2.243-1.067 6.435-3.646 9.219-2.466 2.663-3.603 2.979-4.099 1.138-.485-1.803.572-5.743 2.397-8.932.738-1.29.769-1.433.342-1.597-.356-.136-.852.26-2.07 1.655-4.464 5.11-8.45 8.747-11.014 10.045-1.546.784-1.993.812-2.348.15-.427-.798.23-2.468 2.347-5.959 2.977-4.91 4.292-7.697 4.449-9.427.125-1.38.075-1.56-.67-2.393-.778-.87-.872-.9-2.745-.9-1.485.002-2.319.161-3.554.681-3.692 1.554-8.21 5.35-9.745 8.186-1.38 2.553-.994 4.758.835 4.758.858 0 2.454-.7 2.454-1.078 0-.299-.544-.254-2.01.166-.801.23-1.473-.526-1.266-1.422.312-1.35 1.52-3.099 3.518-5.094 4.354-4.348 9.068-6.522 10.908-5.03.525.427.619.732.592 1.928-.042 1.817-1.05 4.235-3.369 8.085-2.277 3.779-3.097 5.59-3.152 6.958-.073 1.833 1.409 2.36 3.708 1.315zm31.42-.8c0-.486-.16-.685-.596-.747-.358-.05-.66.081-.756.33-.264.687.106 1.255.756 1.162.437-.062.596-.26.596-.746z"/></svg>